# xmcd
#
# Track frame offsets:
# 150
# 24846
# 35459
# 47969
# 66226
# 77651
# 93231
# 111920
# 123980
# 136344
# 152612
# 168617
# 182153
#
# Disc length: 2776 seconds
#
#
# Revision: 0
# Processed by: cddbd v1.5PL3 Copyright (c) Steve Scherf et al.
# Submitted via: FreeRIP 2.70 
#
DISCID=a70ad60d
DTITLE=FourFather - Hang-Lemez
DYEAR=1900
DGENRE=A Cappella
TTITLE0=Boksz
TTITLE1=Csavard fel a szõnyeget
TTITLE2=Régi csibészek
TTITLE3=Szállj fel magasra
TTITLE4=Lökd ide a sõrt
TTITLE5=Hotel Menthol
TTITLE6=Sohase mondd
TTITLE7=Gyere.gyere ki a hegyoldalba
TTITLE8=A ma lesz a holnap tegnapja
TTITLE9=Évszakok
TTITLE10=Gedeon bácsi
TTITLE11=Az utcán
TTITLE12=Legyen ünnep
EXTD=
EXTT0=
EXTT1=
EXTT2=
EXTT3=
EXTT4=
EXTT5=
EXTT6=
EXTT7=
EXTT8=
EXTT9=
EXTT10=
EXTT11=
EXTT12=
PLAYORDER=
